Coordinates
version=1
nRows=10
nColumns=34
inDegrees=yes

Units are S.I. units (second, meters, Newtons, ...)
If the header above contains a line with 'inDegrees', this indicates whether rotational values are in degrees (yes) or radians (no).

endheader
time	pelvis_tilt	pelvis_list	pelvis_rotation	pelvis_tx	pelvis_ty	pelvis_tz	hip_flexion_r	hip_adduction_r	hip_rotation_r	knee_angle_r	ankle_angle_r	subtalar_angle_r	mtp_angle_r	hip_flexion_l	hip_adduction_l	hip_rotation_l	knee_angle_l	ankle_angle_l	subtalar_angle_l	mtp_angle_l	lumbar_extension	lumbar_bending	lumbar_rotation	arm_flex_r	arm_add_r	arm_rot_r	elbow_flex_r	pro_sup_r	arm_flex_l	arm_add_l	arm_rot_l	elbow_flex_l	pro_sup_l
      2.06000000	     -0.63743790	      5.68326114	      2.41514791	     -0.32744247	      0.90417674	      0.19236578	      5.96493886	     -5.00593772	     -0.43007810	    -61.12790611	    -17.42357699	    -14.35515177	     29.25230024	     18.24987605	     10.05530195	     -3.77234782	    -22.03494860	      3.58059428	     -0.91539510	      7.31561355	     -4.45359132	     -6.38503757	      0.29612698	     -4.54293218	    -17.12910413	      1.71435977	     29.61619982	     90.00000000	     -3.51850041	    -16.74877373	     23.20464954	     14.86767954	     90.00000000
      2.07000000	     -1.05413437	      5.45047741	      2.00925674	     -0.31584359	      0.90549000	      0.19244584	      8.74688977	     -4.57150262	      0.33920756	    -62.94997000	    -16.81589728	    -15.82020617	     28.29463932	     17.72611461	      9.59960877	     -4.64187149	    -21.77748601	      4.30352956	      0.39166410	      7.16527760	     -4.08902093	     -6.15981544	      0.12956465	     -4.07758346	    -17.04756529	      3.30520656	     27.61474190	     90.00000000	     -3.12122398	    -16.93915146	     23.70596824	     15.63901770	     90.00000000
      2.08000000	     -1.07392708	      5.42439026	      1.68951734	     -0.30396349	      0.90752072	      0.19232137	     10.89491395	     -4.39030355	      0.90776022	    -64.26391125	    -15.54558163	    -16.29177411	     28.26249311	     16.57142084	      9.50569177	     -4.90575055	    -21.17932264	      4.94152229	      0.69205841	      7.14783771	     -4.22592512	     -6.10228650	     -0.05104791	     -4.20011884	    -16.90456664	      3.55744136	     27.05109271	     90.00000000	     -2.55857622	    -17.14332489	     23.69909104	     16.33290547	     90.00000000
      2.09000000	     -1.16343639	      5.31973808	      1.41076351	     -0.29199644	      0.90946404	      0.19228528	     13.01297357	     -4.05603175	      1.48347101	    -65.16865071	    -14.35593899	    -16.18164781	     28.26383618	     15.41886735	      9.35955852	     -4.95917281	    -20.45387169	      5.45780560	      1.04222583	      7.09054656	     -4.23162785	     -5.98222373	     -0.22768673	     -4.26674243	    -16.72070506	      3.85041562	     26.06782858	     90.00000000	     -2.05396870	    -17.37776249	     23.80285957	     17.21497809	     90.00000000
      2.10000000	     -1.22832808	      5.24387844	      1.13272249	     -0.27996918	      0.91136254	      0.19216806	     15.03134134	     -3.79538855	      2.00201710	    -65.77288716	    -12.71527809	    -15.19478112	     28.15464388	     14.21171803	      9.27422485	     -4.89645365	    -19.72219076	      6.01277466	      1.26423283	      6.90512030	     -4.24482350	     -5.87010851	     -0.45337873	     -4.20286551	    -16.57454990	      4.34010179	     24.79933019	     90.00000000	     -1.61435860	    -17.64455531	     24.10702531	     18.11439647	     90.00000000
      2.11000000	     -1.14997889	      5.10033335	      1.01540335	     -0.26784310	      0.91350085	      0.19188331	     16.69286974	     -3.50891297	      2.33157840	    -65.86415354	    -10.98166348	    -13.65517582	     28.07964251	     12.73423349	      9.18260052	     -4.49316615	    -18.75296219	      6.37238231	      1.30351038	      6.57185661	     -4.41139066	     -5.68117146	     -0.86381878	     -4.19130807	    -16.39506969	      4.97049177	     23.67196123	     90.00000000	     -1.17560751	    -17.94178446	     24.33130812	     19.14573172	     90.00000000
      2.12000000	     -1.08722714	      4.77814825	      1.01616237	     -0.25556119	      0.91547974	      0.19145118	     18.20782853	     -3.06698546	      2.40949555	    -65.55068198	     -9.30462638	    -12.32010569	     27.53800930	     11.34644260	      8.92832422	     -3.92180342	    -17.93566340	      6.83526829	      1.24592417	      6.28196666	     -4.54986651	     -5.26072655	     -1.24379607	     -4.41210240	    -16.31445399	      5.33700948	     22.86364072	     90.00000000	     -0.67444790	    -18.13904110	     24.37671740	     19.99001388	     90.00000000
      2.13000000	     -1.09822776	      4.49911311	      1.02111090	     -0.24356191	      0.91712229	      0.19113900	     19.81982137	     -2.70609663	      2.37444701	    -64.98824699	     -8.72400449	    -12.14681458	     27.55394987	     10.17957894	      8.66386015	     -3.74427442	    -17.30863622	      7.04586607	      1.33166349	      6.27050767	     -4.65226161	     -4.91664723	     -1.62967245	     -4.88557634	    -16.27777645	      5.33011947	     23.01817843	     90.00000000	     -0.07606180	    -18.38777647	     24.18945070	     20.75951594	     90.00000000
      2.14000000	     -1.20946570	      4.03327531	      1.12557691	     -0.23112522	      0.91856698	      0.19034232	     21.19973262	     -2.14749015	      2.36261399	    -63.83575837	     -7.12562523	    -11.43104731	     27.61213541	      8.88143535	      8.32113564	     -2.85515894	    -16.32117268	      7.54349967	      1.39650659	      6.22447362	     -4.53279343	     -4.28506643	     -1.78774502	     -5.50233793	    -16.29542656	      5.24169843	     22.38153506	     90.00000000	      0.42007037	    -18.48778551	     24.12588447	     21.82646747	     90.00000000
      2.15000000	     -1.06235082	      3.89509293	      1.34254352	     -0.21876867	      0.92001546	      0.18939842	     22.33265803	     -2.23337381	      1.96944713	    -62.78555072	     -3.93648845	     -8.08547468	     22.15489441	      7.44295495	      8.29851457	     -2.36413276	    -15.55936376	      8.11576857	      1.06343103	      4.19845797	     -4.73771180	     -4.07770799	     -2.49504758	     -5.24923332	    -16.14771608	      6.22783759	     20.47466960	     90.00000000	      0.62320989	    -18.88227426	     23.58959428	     23.43273104	     90.00000000
